# xmcd CD database file
#
# Track frame offsets:
#	150
#	21647
#	46812
#	69310
#	95797
#	116225
#	153000
#	187317
#	210892
#
# Disc length: 3162 seconds
#
# Revision: 0
# Processed by: cddbd v1.5.1PL0 Copyright (c) Steve Scherf et al.
# Submitted via: CDex 1.51
#
DISCID=7b0c5809
DTITLE=Peter Almquist Trio - Dig Myself and I
DYEAR=1995
DGENRE=Jazz
TTITLE0=Dig Myself and I
TTITLE1=Old Folks
TTITLE2=Minor Groove
TTITLE3=Cama de Gato
TTITLE4=For My Lady
TTITLE5=I Love You
TTITLE6=You Don't Know What Love Is
TTITLE7=Straight Ahead
TTITLE8=Summertime
EXTD=YEAR: 1995
EXTT0=
EXTT1=
EXTT2=
EXTT3=
EXTT4=
EXTT5=
EXTT6=
EXTT7=
EXTT8=
PLAYORDER=
